<svg class="animated" id="freepik_stories-forensic-medicine" xmlns="http://www.w3.org/2000/svg" viewBox="0 0 500 500" version="1.1" xmlns:xlink="http://www.w3.org/1999/xlink" xmlns:svgjs="http://svgjs.com/svgjs"><style>svg#freepik_stories-forensic-medicine:not(.animated) .animable {opacity: 0;}svg#freepik_stories-forensic-medicine.animated #freepik--background-simple--inject-73 {animation: 1s 1 forwards cubic-bezier(.36,-0.01,.5,1.38) fadeIn;animation-delay: 0s;}svg#freepik_stories-forensic-medicine.animated #freepik--Scale--inject-73 {animation: 1s 1 forwards cubic-bezier(.36,-0.01,.5,1.38) slideRight;animation-delay: 0s;}svg#freepik_stories-forensic-medicine.animated #freepik--Fingerprint--inject-73 {animation: 1s 1 forwards cubic-bezier(.36,-0.01,.5,1.38) slideUp;animation-delay: 0s;}svg#freepik_stories-forensic-medicine.animated #freepik--magnifying-glass--inject-73 {animation: 1s 1 forwards cubic-bezier(.36,-0.01,.5,1.38) slideUp;animation-delay: 0s;}svg#freepik_stories-forensic-medicine.animated #freepik--Drawers--inject-73 {animation: 1s 1 forwards cubic-bezier(.36,-0.01,.5,1.38) slideUp;animation-delay: 0s;}svg#freepik_stories-forensic-medicine.animated #freepik--character-2--inject-73 {animation: 1s 1 forwards cubic-bezier(.36,-0.01,.5,1.38) lightSpeedRight;animation-delay: 0s;}svg#freepik_stories-forensic-medicine.animated #freepik--Table--inject-73 {animation: 1s 1 forwards cubic-bezier(.36,-0.01,.5,1.38) zoomIn;animation-delay: 0s;}svg#freepik_stories-forensic-medicine.animated #freepik--Clipboard--inject-73 {animation: 1s 1 forwards cubic-bezier(.36,-0.01,.5,1.38) slideRight;animation-delay: 0s;}svg#freepik_stories-forensic-medicine.animated #freepik--character-1--inject-73 {animation: 1s 1 forwards cubic-bezier(.36,-0.01,.5,1.38) slideLeft;animation-delay: 0s;}svg#freepik_stories-forensic-medicine.animated #freepik--Skull--inject-73 {animation: 1s 1 forwards cubic-bezier(.36,-0.01,.5,1.38) fadeIn;animation-delay: 0s;}            @keyframes fadeIn {                0% {                    opacity: 0;                }                100% {                    opacity: 1;                }            }                    @keyframes slideRight {                0% {                    opacity: 0;                    transform: translateX(30px);                }                100% {                    opacity: 1;                    transform: translateX(0);                }            }                    @keyframes slideUp {                0% {                    opacity: 0;                    transform: translateY(30px);                }                100% {                    opacity: 1;                    transform: inherit;                }            }                    @keyframes lightSpeedRight {              from {                transform: translate3d(50%, 0, 0) skewX(-20deg);                opacity: 0;              }              60% {                transform: skewX(10deg);                opacity: 1;              }              80% {                transform: skewX(-2deg);              }              to {                opacity: 1;                transform: translate3d(0, 0, 0);              }            }                    @keyframes zoomIn {                0% {                    opacity: 0;                    transform: scale(0.5);                }                100% {                    opacity: 1;                    transform: scale(1);                }            }                    @keyframes slideLeft {                0% {                    opacity: 0;                    transform: translateX(-30px);                }                100% {                    opacity: 1;                    transform: translateX(0);                }            }        </style><g id="freepik--background-simple--inject-73" class="animable" style="transform-origin: 252.793px 275.925px;"><path d="M463.94,179.43A150.65,150.65,0,0,0,402,108.67C355.59,81,267.53,43.32,175.5,81.74,41,137.88,14.92,356.56,20.79,383.33S269.5,498.21,326.94,485.16,473.16,371.58,482.3,326.53C489.19,292.56,486.06,231.86,463.94,179.43Z" style="fill: rgb(64, 123, 255); transform-origin: 252.793px 275.925px;" id="elosycypwe1be" class="animable"></path><g id="elltjf6gygnng"><path d="M463.94,179.43A150.65,150.65,0,0,0,402,108.67C355.59,81,267.53,43.32,175.5,81.74,41,137.88,14.92,356.56,20.79,383.33S269.5,498.21,326.94,485.16,473.16,371.58,482.3,326.53C489.19,292.56,486.06,231.86,463.94,179.43Z" style="fill: rgb(255, 255, 255); opacity: 0.7; transform-origin: 252.793px 275.925px;" class="animable"></path></g></g><g id="freepik--Scale--inject-73" class="animable" style="transform-origin: 426.99px 222.581px;"><path d="M427,245a45.5,45.5,0,1,1,45.49-45.5A45.55,45.55,0,0,1,427,245Zm0-90a44.5,44.5,0,1,0,44.49,44.5A44.55,44.55,0,0,0,427,155Z" style="fill: rgb(38, 50, 56); transform-origin: 426.99px 199.5px;" id="elfapbmum1ri" class="animable"></path><path d="M427,236.68a37.21,37.21,0,1,1,37.2-37.21A37.25,37.25,0,0,1,427,236.68Zm0-73.42a36.21,36.21,0,1,0,36.2,36.21A36.25,36.25,0,0,0,427,163.26Z" style="fill: rgb(38, 50, 56); transform-origin: 426.99px 199.47px;" id="elv5gwim189u" class="animable"></path><path d="M462.07,316.74h-70a.5.5,0,0,1-.5-.5v-6.51a.5.5,0,0,1,.5-.5h70a.5.5,0,0,1,.5.5v6.51A.51.51,0,0,1,462.07,316.74Zm-69.49-1h69v-5.51h-69Z" style="fill: rgb(38, 50, 56); transform-origin: 427.07px 312.985px;" id="elax1vj6rclrw" class="animable"></path><path d="M452.46,342.25H401.68a.49.49,0,0,1-.48-.38l-6.35-25.44a.51.51,0,0,1,.09-.43.51.51,0,0,1,.4-.19h63.47a.51.51,0,0,1,.4.19.51.51,0,0,1,.09.43L453,341.87A.51.51,0,0,1,452.46,342.25Zm-50.39-1h50l6.1-24.44H396Z" style="fill: rgb(38, 50, 56); transform-origin: 427.075px 329.031px;" id="el4mk276mt8m4" class="animable"></path><path d="M392.08,310.23a.54.54,0,0,1-.3-.1.5.5,0,0,1-.1-.7l34.18-45.33a.49.49,0,0,1,.4-.2.44.44,0,0,1,.4.19l35.8,45.33a.5.5,0,0,1-.78.62l-35.41-44.82L392.48,310A.51.51,0,0,1,392.08,310.23Z" style="fill: rgb(38, 50, 56); transform-origin: 427.062px 287.064px;" id="elno68ssxcvm" class="animable"></path><path d="M426.26,309.82a.5.5,0,0,1-.5-.5V264.4a.5.5,0,0,1,.5-.5.5.5,0,0,1,.5.5v44.92A.5.5,0,0,1,426.26,309.82Z" style="fill: rgb(38, 50, 56); transform-origin: 426.26px 286.86px;" id="elloepk5oqo9" class="animable"></path><path d="M427.17,255.83h-4.11a.5.5,0,0,1-.5-.5V244.47a.5.5,0,0,1,.5-.5h4.11a.5.5,0,0,1,.5.5v10.86A.5.5,0,0,1,427.17,255.83Zm-3.61-1h3.11V245h-3.11Z" style="fill: rgb(38, 50, 56); transform-origin: 425.115px 249.9px;" id="elwqmfeb60cwo" class="animable"></path><path d="M426.51,266.67c-1.1,0-1.93-1.46-1.93-3.38v-7.68a.5.5,0,0,1,1,0v7.68c0,1.43.56,2.38.93,2.38s.93-.95.93-2.38v-4.11a.5.5,0,0,1,1,0v4.11C428.44,265.21,427.61,266.67,426.51,266.67Z" style="fill: rgb(38, 50, 56); transform-origin: 426.51px 260.89px;" id="el5ofmhx4yows" class="animable"></path><path d="M427,200a.5.5,0,0,1-.5-.5V179.34a.5.5,0,0,1,.5-.5.5.5,0,0,1,.5.5v20.13A.5.5,0,0,1,427,200Z" style="fill: rgb(38, 50, 56); transform-origin: 427px 189.42px;" id="el952tq37g4vr" class="animable"></path><path d="M427,154.62a3,3,0,0,1-3-3v-4.68a3,3,0,0,1,6,0v4.68A3,3,0,0,1,427,154.62Zm0-9.72a2,2,0,0,0-2,2v4.68a2,2,0,0,0,4,0v-4.68A2,2,0,0,0,427,144.9Z" style="fill: rgb(38, 50, 56); transform-origin: 427px 149.28px;" id="eluo3o1cbhwdc" class="animable"></path><path d="M427,141a3,3,0,0,1-3-3v-4.69a3,3,0,0,1,6,0v4.69A3,3,0,0,1,427,141Zm0-9.73a2,2,0,0,0-2,2v4.69a2,2,0,0,0,4,0v-4.69A2,2,0,0,0,427,131.22Z" style="fill: rgb(38, 50, 56); transform-origin: 427px 135.655px;" id="elcjablz209g7" class="animable"></path><path d="M427,147.72a1.71,1.71,0,0,1-1.71-1.7V138.7a1.71,1.71,0,1,1,3.41,0V146A1.7,1.7,0,0,1,427,147.72Zm0-9.73a.71.71,0,0,0-.71.71V146a.71.71,0,0,0,.71.7.7.7,0,0,0,.7-.7V138.7A.7.7,0,0,0,427,138Z" style="fill: rgb(38, 50, 56); transform-origin: 426.995px 142.29px;" id="elk835vkcey4" class="animable"></path><path d="M427,127.27a3,3,0,0,1-3-3v-4.68a3,3,0,0,1,6,0v4.68A3,3,0,0,1,427,127.27Zm0-9.72a2,2,0,0,0-2,2v4.68a2,2,0,0,0,4,0v-4.68A2,2,0,0,0,427,117.55Z" style="fill: rgb(38, 50, 56); transform-origin: 427px 121.93px;" id="elq8tmyjoudzp" class="animable"></path><path d="M427,134a1.71,1.71,0,0,1-1.71-1.7V125a1.71,1.71,0,0,1,3.41,0v7.32A1.7,1.7,0,0,1,427,134Zm0-9.72a.7.7,0,0,0-.71.7v7.32a.7.7,0,0,0,.71.7.7.7,0,0,0,.7-.7V125A.7.7,0,0,0,427,124.32Z" style="fill: rgb(38, 50, 56); transform-origin: 426.995px 128.71px;" id="elzfbnc655kn" class="animable"></path><path d="M427,113.6a3,3,0,0,1-3-3v-4.69a3,3,0,0,1,6,0v4.69A3,3,0,0,1,427,113.6Zm0-9.73a2,2,0,0,0-2,2v4.69a2,2,0,0,0,4,0v-4.69A2,2,0,0,0,427,103.87Z" style="fill: rgb(38, 50, 56); transform-origin: 427px 108.255px;" id="elfmonxg4ebrl" class="animable"></path><path d="M427,120.37a1.71,1.71,0,0,1-1.71-1.7v-7.32a1.71,1.71,0,1,1,3.41,0v7.32A1.7,1.7,0,0,1,427,120.37Zm0-9.73a.71.71,0,0,0-.71.71v7.32a.71.71,0,0,0,.71.7.7.7,0,0,0,.7-.7v-7.32A.7.7,0,0,0,427,110.64Z" style="fill: rgb(38, 50, 56); transform-origin: 426.995px 114.94px;" id="el6xbqz6af0mm" class="animable"></path></g><g id="freepik--Fingerprint--inject-73" class="animable" style="transform-origin: 286.072px 134.441px;"><g id="elphzyukkh6p"><g style="opacity: 0.3; transform-origin: 286.072px 134.441px;" class="animable"><path d="M257.23,81.23l-1.1-1.92A52.25,52.25,0,0,1,260,75.1c23.11-10.55,46-3.25,54.09,0,.84.81,1.64,1.7,2.44,2.59l-1.27,2.53C315,80.11,284.86,65.44,257.23,81.23Z" id="elf4kzf3zlqxf" class="animable" style="transform-origin: 286.33px 75.4161px;"></path><path d="M243.67,102.27a80.94,80.94,0,0,1,3.39-8.6c10.81-8.42,23.8-13.28,37.07-13.28,17.59,0,34.83,9.09,43.37,14.36,1,2.19,1.88,4.48,2.69,6.83-2.85-2-24.67-17-46.06-17C269.26,84.62,254.74,91.19,243.67,102.27Z" id="elp9834hvsnfd" class="animable" style="transform-origin: 286.93px 91.33px;"></path><path d="M324.67,160.28c.11-.23,10.73-23-3-44.55A45.2,45.2,0,0,0,291.05,95c-11.82-2.15-21.94.43-26.36,3.74-7.05,5.29-12.2,12-16.75,17.89a77,77,0,0,1-8.79,10.22c.11-2.26.3-4.48.56-6.68,1.56-1.82,3.16-3.88,4.88-6.11,4.71-6.13,10.06-13.07,17.57-18.7,5.29-4,16.51-6.9,29.64-4.52a49.36,49.36,0,0,1,33.46,22.67c14.95,23.5,3.71,47.63,3.23,48.64Z" id="elyud1koe45pa" class="animable" style="transform-origin: 286.072px 126.065px;"></path><path d="M244.17,131.92a71.06,71.06,0,0,0,4.82-7.24c6.14-10.05,13.78-22.55,36.18-22.55,10.44,0,18.76,3.52,24.74,10.47,8.52,9.89,9.93,24.26,8.41,34.41-1.66,11,3.62,18.51,8.44,22.92-.63,1.3-1.3,2.54-2,3.77-5.77-5-12.63-14-10.63-27.32,1.38-9.22.16-22.22-7.43-31-5.14-6-12.39-9-21.54-9-20,0-26.4,10.43-32.57,20.53a74.6,74.6,0,0,1-5.12,7.67,26.93,26.93,0,0,1-7.93,6.91c-.16-1.57-.29-3.14-.38-4.74A24.83,24.83,0,0,0,244.17,131.92Z" id="el033artmxw6zq" class="animable" style="transform-origin: 282.96px 137.915px;"></path><path d="M259.76,132.24a57.05,57.05,0,0,1,2.94-5.35c4-6,13.4-20.08,32.59-12.17,15.11,6.22,13.66,22.06,12.38,36-.37,4-.72,7.87-.72,11.47,0,10,7.14,16.75,12,20.23-.9,1.13-1.82,2.22-2.78,3.25-5.57-4-13.45-11.77-13.45-23.48,0-3.8.38-7.89.74-11.86,1.26-13.73,2.44-26.7-9.78-31.74-16-6.59-23.17,4.18-27.46,10.61a53.1,53.1,0,0,0-2.69,4.93c-3.47,6.82-9,17.62-20.45,24.85-.44-1.41-.82-2.86-1.19-4.32C251.59,148.13,256.42,138.81,259.76,132.24Z" id="elyp9pal0gq2b" class="animable" style="transform-origin: 280.42px 149.019px;"></path><path d="M263,150.38c2.38-2.39,3.57-5.3,4.95-8.68,1.87-4.6,4-9.81,9.74-14.27,3.74-2.91,7.9-3.39,11.71-1.34,6.1,3.28,10,12.45,9.29,21.8-.9,11.76-26.93,32.51-37.86,40.74-1-.95-2-2-3-3,12.7-9.56,35.93-28.82,36.64-38,.59-7.64-2.46-15.27-7.08-17.76-2.32-1.24-4.71-.92-7.12.95-4.84,3.77-6.66,8.23-8.42,12.54-1.42,3.48-2.89,7.08-5.88,10.06-3.94,3.95-12.93,10.57-19.27,15.09-.6-1.3-1.18-2.62-1.71-4C251.15,160.05,259.41,153.94,263,150.38Z" id="elw2zl3dqdqnm" class="animable" style="transform-origin: 271.882px 156.734px;"></path><path d="M286.24,138.54c-.91,14.54-23.95,35.59-32.11,42.61-.83-1.13-1.64-2.29-2.42-3.49,10.39-9,29.59-27.81,30.31-39.38Z" id="elj27ws7kix8k" class="animable" style="transform-origin: 268.975px 159.715px;"></path><path d="M280.52,180.05c3.11-3.62,5.58-6.48,9.82-6.48,6.48,0,16.4,10.93,21.14,16.63-1.1.92-2.22,1.77-3.36,2.57-5.84-7-14-15-17.78-15-2.21,0-3.71,1.62-6.62,5a58.22,58.22,0,0,1-13.87,12.36,42.85,42.85,0,0,1-4-2.49A53.39,53.39,0,0,0,280.52,180.05Z" id="elky116f6k3jb" class="animable" style="transform-origin: 288.665px 184.35px;"></path><path d="M277.15,198.28c3-4.55,8.06-11.33,11.65-12.22,4.3-1.06,8.08,5.59,10.49,11.37a35.07,35.07,0,0,1-4.09,1.26c-2-4.53-4.33-8.31-5.38-8.53-1.5.37-5,4.47-8.22,9.12A34,34,0,0,1,277.15,198.28Z" id="elp09899kaioc" class="animable" style="transform-origin: 288.22px 192.614px;"></path></g></g></g><g id="freepik--magnifying-glass--inject-73" class="animable" style="transform-origin: 169.391px 116.369px;"><g id="el7fs2mv8yiv6"><rect x="52.84" y="154.75" width="81.26" height="25.81" style="fill: rgb(38, 50, 56); transform-origin: 93.47px 167.655px; transform: rotate(-25.08deg);" class="animable"></rect></g><path d="M62.14,197.07a.47.47,0,0,1-.17,0,.53.53,0,0,1-.29-.26L50.75,173.4a.49.49,0,0,1,.24-.66l73.6-34.44a.49.49,0,0,1,.66.24l10.94,23.38a.5.5,0,0,1,0,.38.55.55,0,0,1-.26.28L62.35,197A.54.54,0,0,1,62.14,197.07ZM51.86,173.43l10.52,22.48,72.69-34-10.51-22.47Z" style="fill: rgb(38, 50, 56); transform-origin: 93.4643px 167.664px;" id="el09816ogiz81o" class="animable"></path><g id="elx5i8k1ggk5h"><rect x="128.03" y="130.87" width="47.45" height="19.02" style="fill: rgb(255, 255, 255); transform-origin: 151.755px 140.38px; transform: rotate(-25.08deg);" class="animable"></rect></g><path d="M134.3,159.55a.47.47,0,0,1-.17,0,.45.45,0,0,1-.28-.26L125.79,142a.5.5,0,0,1,.24-.67l43-20.11a.5.5,0,0,1,.38,0,.48.48,0,0,1,.29.25l8.06,17.23a.49.49,0,0,1-.24.66l-43,20.12A.52.52,0,0,1,134.3,159.55Zm-7.4-17.48,7.64,16.32,42.07-19.69L169,122.38Z" style="fill: rgb(38, 50, 56); transform-origin: 151.775px 140.37px;" id="el9dp8yjeyn4o" class="animable"></path><polygon points="132.69 155.03 175.66 134.91 173.51 130.57 130.53 150.69 132.69 155.03" style="fill: rgb(38, 50, 56); transform-origin: 153.095px 142.8px;" id="el38dfs89we8g" class="animable"></polygon><path d="M132.69,155.53a.51.51,0,0,1-.45-.28l-2.15-4.34a.5.5,0,0,1,.23-.68l43-20.11a.51.51,0,0,1,.66.23l2.15,4.34a.5.5,0,0,1-.23.68l-43,20.11A.54.54,0,0,1,132.69,155.53Zm-1.48-4.61,1.71,3.45L175,134.68l-1.71-3.45Z" style="fill: rgb(38, 50, 56); transform-origin: 153.11px 142.803px;" id="elb34zp1quxb6" class="animable"></path><path d="M222.57,36.17a65,65,0,1,1-65,65A65,65,0,0,1,222.57,36.17Zm0,115.26a50.25,50.25,0,1,0-50.25-50.25A50.24,50.24,0,0,0,222.57,151.43Z" style="fill: rgb(38, 50, 56); transform-origin: 222.57px 101.17px;" id="elvsttdfqnw2" class="animable"></path><path d="M222.57,166.7a65.52,65.52,0,1,1,65.51-65.52A65.59,65.59,0,0,1,222.57,166.7Zm0-130a64.52,64.52,0,1,0,64.51,64.51A64.59,64.59,0,0,0,222.57,36.67Zm0,115.26a50.75,50.75,0,1,1,50.74-50.75A50.81,50.81,0,0,1,222.57,151.93Zm0-100.49a49.75,49.75,0,1,0,49.74,49.74A49.81,49.81,0,0,0,222.57,51.44Z" style="fill: rgb(38, 50, 56); transform-origin: 222.56px 101.18px;" id="el72ecdvi3jvc" class="animable"></path></g><g id="freepik--Drawers--inject-73" class="animable" style="transform-origin: 200.68px 317.47px;"><path d="M187.64,310.83H54.79a.5.5,0,0,1-.5-.5V219.27a.5.5,0,0,1,.5-.5H187.64a.5.5,0,0,1,.5.5v91.06A.5.5,0,0,1,187.64,310.83Zm-132.35-1H187.14V219.77H55.29Z" style="fill: rgb(38, 50, 56); transform-origin: 121.215px 264.8px;" id="elvzvyl5m3igb" class="animable"></path><path d="M64.91,275.54H47.23a.5.5,0,0,1-.5-.5v-18.4a.5.5,0,0,1,.5-.5H64.91a.51.51,0,0,1,.5.5V275A.5.5,0,0,1,64.91,275.54Zm-17.18-1H64.41v-17.4H47.73Z" style="fill: rgb(38, 50, 56); transform-origin: 56.0708px 265.84px;" id="elah0pmeaj3n" class="animable"></path><path d="M187.64,416.17H54.79a.51.51,0,0,1-.5-.5V324.6a.51.51,0,0,1,.5-.5H187.64a.51.51,0,0,1,.5.5v91.07A.51.51,0,0,1,187.64,416.17Zm-132.35-1H187.14V325.1H55.29Z" style="fill: rgb(38, 50, 56); transform-origin: 121.215px 370.135px;" id="elxq4xe5ivjpk" class="animable"></path><path d="M64.91,380.87H47.23a.5.5,0,0,1-.5-.5V362a.5.5,0,0,1,.5-.5H64.91a.51.51,0,0,1,.5.5v18.4A.5.5,0,0,1,64.91,380.87Zm-17.18-1H64.41v-17.4H47.73Z" style="fill: rgb(38, 50, 56); transform-origin: 56.07px 371.185px;" id="elom5yxwyyctl" class="animable"></path><path d="M354.13,310.83H221.29a.5.5,0,0,1-.5-.5V219.27a.5.5,0,0,1,.5-.5H354.13a.5.5,0,0,1,.5.5v91.06A.5.5,0,0,1,354.13,310.83Zm-132.34-1H353.63V219.77H221.79Z" style="fill: rgb(38, 50, 56); transform-origin: 287.71px 264.8px;" id="elg1xntnrc219" class="animable"></path><path d="M231.4,275.54H213.73a.5.5,0,0,1-.5-.5v-18.4a.5.5,0,0,1,.5-.5H231.4a.5.5,0,0,1,.5.5V275A.5.5,0,0,1,231.4,275.54Zm-17.17-1H230.9v-17.4H214.23Z" style="fill: rgb(38, 50, 56); transform-origin: 222.566px 265.84px;" id="eljpjetepnpfa" class="animable"></path><path d="M354.13,416.17H221.29a.51.51,0,0,1-.5-.5V324.6a.51.51,0,0,1,.5-.5H354.13a.5.5,0,0,1,.5.5v91.07A.5.5,0,0,1,354.13,416.17Zm-132.34-1H353.63V325.1H221.79Z" style="fill: rgb(38, 50, 56); transform-origin: 287.71px 370.135px;" id="elm7b3ne5g0w" class="animable"></path><path d="M231.4,380.87H213.73a.5.5,0,0,1-.5-.5V362a.5.5,0,0,1,.5-.5H231.4a.5.5,0,0,1,.5.5v18.4A.5.5,0,0,1,231.4,380.87Zm-17.17-1H230.9v-17.4H214.23Z" style="fill: rgb(38, 50, 56); transform-origin: 222.565px 371.185px;" id="elflpdrcg4bma" class="animable"></path></g><g id="freepik--character-2--inject-73" class="animable" style="transform-origin: 133.16px 372.355px;"><g id="el9lp096dyjap"><rect x="187.64" y="325.56" width="52.24" height="91.06" style="fill: rgb(255, 255, 255); transform-origin: 213.76px 371.09px; transform: rotate(180deg);" class="animable"></rect></g><path d="M239.87,417.12H187.64a.5.5,0,0,1-.5-.5V325.56a.5.5,0,0,1,.5-.5h52.23a.5.5,0,0,1,.5.5v91.06A.5.5,0,0,1,239.87,417.12Zm-51.73-1h51.23V326.06H188.14Z" style="fill: rgb(38, 50, 56); transform-origin: 213.755px 371.09px;" id="el7elrq6gacfu" class="animable"></path><g id="ela4khjmw4tvb"><rect x="187.64" y="325.56" width="46.57" height="91.06" style="fill: rgb(255, 255, 255); transform-origin: 210.925px 371.09px; transform: rotate(180deg);" class="animable"></rect></g><path d="M234.2,417.12H187.64a.5.5,0,0,1-.5-.5V325.56a.5.5,0,0,1,.5-.5H234.2a.5.5,0,0,1,.5.5v91.06A.5.5,0,0,1,234.2,417.12Zm-46.06-1H233.7V326.06H188.14Z" style="fill: rgb(38, 50, 56); transform-origin: 210.92px 371.09px;" id="el2si1sjgcen8" class="animable"></path><rect x="54.79" y="325.56" width="132.84" height="91.06" style="fill: rgb(38, 50, 56); transform-origin: 121.21px 371.09px;" id="elm6tg7jw51lm" class="animable"></rect><path d="M187.64,417.12H54.79a.5.5,0,0,1-.5-.5V325.56a.5.5,0,0,1,.5-.5H187.64a.5.5,0,0,1,.5.5v91.06A.5.5,0,0,1,187.64,417.12Zm-132.35-1H187.14V326.06H55.29Z" style="fill: rgb(38, 50, 56); transform-origin: 121.215px 371.09px;" id="elvh6ph2ysodb" class="animable"></path><rect x="47.23" y="356.93" width="7.65" height="18.4" style="fill: rgb(255, 255, 255); transform-origin: 51.055px 366.13px;" id="el58c0ruo9qaw" class="animable"></rect><path d="M54.88,375.83H47.23a.5.5,0,0,1-.5-.5v-18.4a.5.5,0,0,1,.5-.5h7.65a.5.5,0,0,1,.5.5v18.4A.5.5,0,0,1,54.88,375.83Zm-7.15-1h6.65v-17.4H47.73Z" style="fill: rgb(38, 50, 56); transform-origin: 51.055px 366.13px;" id="elv6mj05wlk3" class="animable"></path><path d="M210.36,419.15c-.88-1.5-2.77-4.67-4.3-7.15-2.07-3.37-8.53-6.21-20.67-12.67s-49.36-26.63-62-27.4c-21.17-1.3-25.32,2.07-40.57,9.3-15,7.14-37.22,21.2-43.42,24.82-5.53,3.23-11.66,11.36-12.93,13.1Z" style="fill: rgb(255, 255, 255); transform-origin: 118.415px 395.403px;" id="els0lbc5f8ga" class="animable"></path><path d="M210.36,419.65H26.44a.51.51,0,0,1-.4-.8c1.19-1.63,7.44-9.94,13.08-13.23,1.35-.79,3.45-2.07,6.07-3.67,9.58-5.82,25.6-15.57,37.38-21.17,1.6-.75,3.07-1.47,4.46-2.14,11.86-5.75,17.27-8.38,36.36-7.21,12.14.74,45.84,18.72,60.23,26.39l2,1.07q3.42,1.82,6.26,3.28c8.29,4.33,12.86,6.72,14.61,9.56,1.48,2.42,3.33,5.52,4.3,7.16a.52.52,0,0,1,0,.5A.51.51,0,0,1,210.36,419.65Zm-182.92-1h182c-1-1.73-2.57-4.32-3.84-6.39-1.61-2.61-6.09-4.95-14.23-9.2-1.89-1-4-2.07-6.26-3.29l-2-1.07c-13.1-7-47.9-25.54-59.82-26.27-18.83-1.15-24.17,1.44-35.87,7.11-1.38.67-2.86,1.39-4.46,2.15-11.74,5.57-27.73,15.3-37.29,21.12-2.62,1.6-4.74,2.88-6.09,3.67C34.79,409.3,29.42,416,27.44,418.65Z" style="fill: rgb(38, 50, 56); transform-origin: 118.402px 395.404px;" id="elvads7wb7xif" class="animable"></path><path d="M116,394.63a.51.51,0,0,1-.42-.23.5.5,0,0,1,.14-.69s1.52-1,4-2.51a.5.5,0,0,1,.69.16.51.51,0,0,1-.17.69c-2.47,1.5-3.95,2.48-4,2.49A.51.51,0,0,1,116,394.63Z" style="fill: rgb(38, 50, 56); transform-origin: 117.989px 392.877px;" id="elz3re1tue55" class="animable"></path><path d="M124.09,389.7a.5.5,0,0,1-.25-.93l1.83-1a23.73,23.73,0,0,1,11.84-3,.5.5,0,0,1,.47.53.48.48,0,0,1-.52.47,23.12,23.12,0,0,0-11.3,2.91l-1.82,1A.54.54,0,0,1,124.09,389.7Z" style="fill: rgb(38, 50, 56); transform-origin: 130.788px 387.237px;" id="eldcl4s5ypz1l" class="animable"></path><path d="M110.38,388.35a.47.47,0,0,1-.32-.12c-4.14-3.5-15.83-5.16-16-5.18a.5.5,0,0,1,.14-1c.49.07,12.09,1.72,16.45,5.4a.51.51,0,0,1,.06.71A.49.49,0,0,1,110.38,388.35Z" style="fill: rgb(38, 50, 56); transform-origin: 102.227px 385.198px;" id="el330573nxulv" class="animable"></path><path d="M65.75,401.57a.51.51,0,0,1-.31-.11.5.5,0,0,1-.08-.7C69,396.12,76.72,391,77,390.74a.5.5,0,1,1,.56.83c-.08.05-7.91,5.3-11.46,9.81A.49.49,0,0,1,65.75,401.57Z" style="fill: rgb(38, 50, 56); transform-origin: 71.5166px 396.112px;" id="elo7uk6q9r1b9" class="animable"></path><path d="M116.33,410.49a.51.51,0,0,1-.47-.32.5.5,0,0,1,.29-.64c4.52-1.74,8.22-3.34,11.38-6.81a23.24,23.24,0,0,1,6.09-5.07.5.5,0,1,1,.45.89,23.14,23.14,0,0,0-5.8,4.85c-3.3,3.63-7.12,5.29-11.76,7.07A.57.57,0,0,1,116.33,410.49Z" style="fill: rgb(38, 50, 56); transform-origin: 125.103px 404.034px;" id="el589fpl1l26t" class="animable"></path><path d="M163.27,411.16a.49.49,0,0,1-.23-.06c-.08,0-2-1-5.66-3.33a51.45,51.45,0,0,1-8-7,.5.5,0,0,1,0-.71.5.5,0,0,1,.71,0,51.64,51.64,0,0,0,7.84,6.86c3.56,2.27,5.55,3.27,5.57,3.28a.5.5,0,0,1,.23.67A.52.52,0,0,1,163.27,411.16Z" style="fill: rgb(38, 50, 56); transform-origin: 156.507px 405.536px;" id="el0i4sm3tl440d" class="animable"></path><path d="M73.35,410.49a.49.49,0,0,1-.48-.37.5.5,0,0,1,.36-.61s4.87-1.32,7.07-3.2S85.58,402,85.61,402a.5.5,0,1,1,.61.79s-3,2.33-5.27,4.28-7.26,3.35-7.47,3.41Z" style="fill: rgb(38, 50, 56); transform-origin: 79.6467px 406.183px;" id="el3q02isicqad" class="animable"></path><path d="M91.52,364.91s-2.21-3.74-2.43-6.16-3.3-2.42-5.72-.88-1.32,4.4-1.32,4.4-3.21-1-4.09,1.23a3.51,3.51,0,0,0,.12,3.45s-3.3-.94-3.74.83l-.44,1.76s-2.24.26-2.24,1.68v1.43a1.92,1.92,0,0,0-1.19,1.66,6.3,6.3,0,0,0,.84,2.61s2,5.7,3.32,8.43,6.18,7.72,7.84,11.17,5.58,12.11,9.5,13.54,8.43.12,9.74-3.68-1.31-10.34-4.28-16-3.8-12.47-4-18.29S91.52,364.91,91.52,364.91Z" style="fill: rgb(255, 255, 255); transform-origin: 86.2631px 383.715px;" id="elakn6nv5bp8" class="animable"></path><path d="M95.13,411.12a9.75,9.75,0,0,1-3.33-.59c-3.86-1.41-7.48-9-9.43-13.06l-.35-.73a38.8,38.8,0,0,0-4.25-6.09,33.2,33.2,0,0,1-3.59-5.08c-1.3-2.72-3.26-8.25-3.34-8.48h0a6.48,6.48,0,0,1-.87-2.78,2.31,2.31,0,0,1,1.19-2v-1.12c0-1.31,1.34-1.93,2.33-2.12l.36-1.44a1.7,1.7,0,0,1,.84-1.1,4.21,4.21,0,0,1,2.54-.3,4.51,4.51,0,0,1,.26-2.94c.68-1.69,2.52-1.9,3.87-1.71a4,4,0,0,1,1.74-4.16c1.77-1.13,3.83-1.46,5.12-.82a2.4,2.4,0,0,1,1.37,2.07c.19,2.12,2,5.4,2.32,5.9s1.77,2.07,2,7.43c.19,4.86.82,12,4,18.08,4,7.64,5.42,13.17,4.3,16.43a6.43,6.43,0,0,1-3.43,3.79A8.33,8.33,0,0,1,95.13,411.12ZM76.29,367.2a2.32,2.32,0,0,0-1.1.22.77.77,0,0,0-.37.48l-.44,1.76A.51.51,0,0,1,74,370s-1.8.24-1.8,1.18v1.43a.5.5,0,0,1-.31.46,1.41,1.41,0,0,0-.88,1.2,5.84,5.84,0,0,0,.77,2.36c.06.14,2.06,5.79,3.34,8.47A34,34,0,0,0,78.55,390a39.85,39.85,0,0,1,4.37,6.27l.35.74c1.76,3.66,5.4,11.28,8.87,12.55a8.22,8.22,0,0,0,6.18-.16,5.5,5.5,0,0,0,2.92-3.22c1-3-.4-8.25-4.25-15.64-3.25-6.23-3.89-13.54-4.09-18.5-.22-5.41-1.69-6.76-1.7-6.77a.63.63,0,0,1-.11-.13c-.1-.16-2.27-3.87-2.49-6.38a1.44,1.44,0,0,0-.82-1.26c-1-.48-2.68-.17-4.14.76-2,1.3-1.16,3.7-1.13,3.8a.5.5,0,0,1-.1.52.51.51,0,0,1-.51.14s-2.78-.81-3.48.94a3.05,3.05,0,0,0,0,2.95.5.5,0,0,1-.53.79A6.68,6.68,0,0,0,76.29,367.2Z" style="fill: rgb(38, 50, 56); transform-origin: 86.275px 383.699px;" id="elss8cev2ef9g" class="animable"></path><path d="M83.42,365.66a.51.51,0,0,1-.45-.27l-1-1.9a.5.5,0,0,1,.23-.67.49.49,0,0,1,.67.22l1,1.9a.5.5,0,0,1-.23.67A.42.42,0,0,1,83.42,365.66Z" style="fill: rgb(38, 50, 56); transform-origin: 82.92px 364.212px;" id="el88nhdf60peg" class="animable"></path><path d="M73.56,375.4a.52.52,0,0,1-.29-.09.5.5,0,0,1-.11-.7c.24-.32,5.89-7.89,12.87-9.69a.5.5,0,0,1,.61.36.52.52,0,0,1-.36.61C79.64,367.6,74,375.12,74,375.2A.48.48,0,0,1,73.56,375.4Z" style="fill: rgb(38, 50, 56); transform-origin: 79.8578px 370.153px;" id="elbu5rnnlca65" class="animable"></path><path d="M72.73,374.45a.51.51,0,0,1-.39-.18L71.28,373a.49.49,0,0,1,.07-.7.5.5,0,0,1,.7.07l1.07,1.31a.5.5,0,0,1-.07.7A.5.5,0,0,1,72.73,374.45Z" style="fill: rgb(38, 50, 56); transform-origin: 72.1979px 373.321px;" id="el72ve85dq0uv" class="animable"></path><path d="M74.75,371.72a.51.51,0,0,1-.45-.27l-.85-1.69a.51.51,0,0,1,.22-.67.52.52,0,0,1,.68.22L75.2,371a.51.51,0,0,1-.22.67A.64.64,0,0,1,74.75,371.72Z" style="fill: rgb(38, 50, 56); transform-origin: 74.325px 370.38px;" id="el6eksatyc009" class="animable"></path><path d="M78.79,368.28a.49.49,0,0,1-.38-.18l-.71-.83a.49.49,0,0,1,0-.7.51.51,0,0,1,.71.05l.71.83a.51.51,0,0,1-.06.71A.49.49,0,0,1,78.79,368.28Z" style="fill: rgb(38, 50, 56); transform-origin: 78.3946px 367.365px;" id="elnwpkgssdhv" class="animable"></path><path d="M142.48,364.91s2.2-3.74,2.42-6.16,3.3-2.42,5.73-.88,1.32,4.4,1.32,4.4,3.21-1,4.09,1.23a3.51,3.51,0,0,1-.12,3.45s3.29-.94,3.73.83l.45,1.76s2.23.26,2.23,1.68v1.43a1.92,1.92,0,0,1,1.19,1.66,6.35,6.35,0,0,1-.83,2.61s-2,5.7-3.33,8.43-6.17,7.72-7.84,11.17-5.58,12.11-9.5,13.54-8.43.12-9.74-3.68,1.31-10.34,4.28-16,3.8-12.47,4-18.29S142.48,364.91,142.48,364.91Z" style="fill: rgb(255, 255, 255); transform-origin: 147.727px 383.715px;" id="el4zultj1s1uc" class="animable"></path><path d="M138.86,411.12a8.36,8.36,0,0,1-3.62-.79,6.46,6.46,0,0,1-3.43-3.79c-1.12-3.26.33-8.79,4.31-16.43,3.15-6.06,3.78-13.22,4-18.08.22-5.36,1.6-7.06,2-7.43s2.13-3.78,2.32-5.9a2.42,2.42,0,0,1,1.37-2.07c1.3-.64,3.36-.31,5.12.82a4,4,0,0,1,1.74,4.16c1.35-.19,3.2,0,3.87,1.71a4.59,4.59,0,0,1,.27,2.94,4.22,4.22,0,0,1,2.54.3,1.72,1.72,0,0,1,.83,1.1l.36,1.44c1,.19,2.33.81,2.33,2.12v1.12a2.31,2.31,0,0,1,1.19,2,6.71,6.71,0,0,1-.9,2.86c0,.15-2,5.68-3.31,8.4a33.75,33.75,0,0,1-3.58,5.08,39.62,39.62,0,0,0-4.26,6.09l-.35.73c-2,4.07-5.57,11.65-9.43,13.06A9.67,9.67,0,0,1,138.86,411.12Zm3.94-45.82s-1.48,1.4-1.7,6.77c-.2,5-.85,12.27-4.1,18.5-3.84,7.39-5.27,12.65-4.24,15.64a5.52,5.52,0,0,0,2.91,3.22,8.22,8.22,0,0,0,6.18.16c3.47-1.27,7.12-8.89,8.87-12.55l.35-.74a40.53,40.53,0,0,1,4.37-6.27,33.22,33.22,0,0,0,3.47-4.89c1.28-2.68,3.29-8.33,3.31-8.39a6.27,6.27,0,0,0,.8-2.44,1.4,1.4,0,0,0-.88-1.2.51.51,0,0,1-.31-.46v-1.43c0-.94-1.77-1.18-1.79-1.18a.51.51,0,0,1-.43-.38l-.44-1.76a.75.75,0,0,0-.36-.48,4.54,4.54,0,0,0-2.76,0,.5.5,0,0,1-.55-.21.5.5,0,0,1,0-.59,3,3,0,0,0,0-2.94c-.7-1.76-3.45-.95-3.48-.94a.49.49,0,0,1-.51-.14.5.5,0,0,1-.1-.52,3.19,3.19,0,0,0-1.12-3.8c-1.46-.93-3.17-1.24-4.15-.76a1.43,1.43,0,0,0-.81,1.26c-.23,2.51-2.4,6.22-2.49,6.38A.69.69,0,0,1,142.8,365.3Zm-.32-.39h0Z" style="fill: rgb(38, 50, 56); transform-origin: 147.752px 383.714px;" id="el35lq6khejtl" class="animable"></path><path d="M150.57,365.66a.44.44,0,0,1-.22-.05.49.49,0,0,1-.22-.67l1-1.9a.5.5,0,0,1,.89.45l-.95,1.9A.5.5,0,0,1,150.57,365.66Z" style="fill: rgb(38, 50, 56); transform-origin: 151.066px 364.23px;" id="el1bn9ajoauaqh" class="animable"></path><path d="M160.43,375.4a.51.51,0,0,1-.4-.2c-.06-.08-5.68-7.6-12.31-9.31a.5.5,0,0,1,.25-1c7,1.8,12.63,9.37,12.86,9.69a.5.5,0,0,1-.1.7A.53.53,0,0,1,160.43,375.4Z" style="fill: rgb(38, 50, 56); transform-origin: 154.13px 370.137px;" id="el4jrv8qid9ve" class="animable"></path><path d="M161.26,374.45a.45.45,0,0,1-.31-.11.49.49,0,0,1-.07-.7l1.06-1.31a.5.5,0,0,1,.78.63l-1.07,1.31A.5.5,0,0,1,161.26,374.45Z" style="fill: rgb(38, 50, 56); transform-origin: 161.797px 373.298px;" id="elv0f8arur12i" class="animable"></path><path d="M159.24,371.72a.59.59,0,0,1-.22-.05.49.49,0,0,1-.22-.67l.85-1.69a.51.51,0,0,1,.67-.22.49.49,0,0,1,.22.67l-.85,1.69A.5.5,0,0,1,159.24,371.72Z" style="fill: rgb(38, 50, 56); transform-origin: 159.67px 370.38px;" id="elynq08miodtr" class="animable"></path><path d="M155.21,368.28a.52.52,0,0,1-.33-.12.51.51,0,0,1,0-.71l.71-.83a.5.5,0,0,1,.76.65l-.71.83A.49.49,0,0,1,155.21,368.28Z" style="fill: rgb(38, 50, 56); transform-origin: 155.603px 367.364px;" id="el18cf8wducs5i" class="animable"></path><rect x="38.08" y="411.17" width="162.56" height="7.97" style="fill: rgb(255, 255, 255); transform-origin: 119.36px 415.155px;" id="elryt7xg9qlh" class="animable"></rect><path d="M200.63,419.65H38.08a.5.5,0,0,1-.5-.5v-8a.5.5,0,0,1,.5-.5H200.63a.5.5,0,0,1,.5.5v8A.5.5,0,0,1,200.63,419.65Zm-162-1H200.13v-7H38.58Z" style="fill: rgb(38, 50, 56); transform-origin: 119.355px 415.15px;" id="elnyrgeic48sb" class="animable"></path></g><g id="freepik--Table--inject-73" class="animable" style="transform-origin: 250.95px 419.15px;"><path d="M492.44,419.65H9.45a.51.51,0,0,1-.5-.5.5.5,0,0,1,.5-.5h483a.5.5,0,0,1,.5.5A.5.5,0,0,1,492.44,419.65Z" style="fill: rgb(38, 50, 56); transform-origin: 250.95px 419.15px;" id="elag84yxznxe" class="animable"></path></g><g id="freepik--Clipboard--inject-73" class="animable" style="transform-origin: 394.496px 435.233px;"><polygon points="388.24 416.63 328.02 427.51 416.58 453.82 460.98 434.84 388.24 416.63" style="fill: rgb(163, 163, 163); transform-origin: 394.5px 435.225px;" id="eld3szsrkkbse" class="animable"></polygon><path d="M416.58,454.32a.34.34,0,0,1-.14,0L327.88,428a.52.52,0,0,1-.36-.51.51.51,0,0,1,.41-.46l60.22-10.88a.48.48,0,0,1,.21,0l72.74,18.2a.49.49,0,0,1,.37.45.5.5,0,0,1-.3.5l-44.39,19A.48.48,0,0,1,416.58,454.32Zm-86.4-26.69,86.37,25.66L459.41,435l-71.18-17.82Z" style="fill: rgb(38, 50, 56); transform-origin: 394.496px 435.233px;" id="eljtiehbhdcx" class="animable"></path><polygon points="390.35 418.79 336.57 428.5 415.66 452.01 455.31 435.05 390.35 418.79" style="fill: rgb(255, 255, 255); transform-origin: 395.94px 435.4px;" id="eleh902hlentp" class="animable"></polygon><path d="M415.66,452.51l-.14,0L336.43,429a.5.5,0,0,1-.36-.5.52.52,0,0,1,.41-.47l53.79-9.71a.5.5,0,0,1,.21,0l64.95,16.26a.51.51,0,0,1,.38.45.5.5,0,0,1-.3.5l-39.65,17A.65.65,0,0,1,415.66,452.51Zm-76.93-23.89,76.9,22.86,38.12-16.31L390.34,419.3Z" style="fill: rgb(38, 50, 56); transform-origin: 395.941px 435.42px;" id="el9jf0pr4nim" class="animable"></path><polygon points="444.7 437.09 421.94 446.22 433.06 449.37 456.52 439.48 444.7 437.09" style="fill: rgb(38, 50, 56); transform-origin: 439.23px 443.23px;" id="el5hb8tiu8qr2" class="animable"></polygon><path d="M433.06,449.87l-.14,0L421.8,446.7a.5.5,0,0,1-.36-.45.49.49,0,0,1,.31-.49l22.77-9.14a.45.45,0,0,1,.28,0L456.62,439a.5.5,0,0,1,.1.95l-23.47,9.89A.58.58,0,0,1,433.06,449.87Zm-9.58-3.73,9.55,2.7,21.81-9.19-10.09-2Z" style="fill: rgb(38, 50, 56); transform-origin: 439.231px 443.234px;" id="elejo5o009sme" class="animable"></path><path d="M405.37,444.8a.5.5,0,0,1-.17-1l29.61-10.71a.51.51,0,0,1,.64.3.5.5,0,0,1-.3.64l-29.61,10.71A.47.47,0,0,1,405.37,444.8Z" style="fill: rgb(38, 50, 56); transform-origin: 420.13px 438.935px;" id="elh0ocerxi5xq" class="animable"></path><path d="M388,440.71a.5.5,0,0,1-.15-1l30.38-9.93a.5.5,0,0,1,.63.32.51.51,0,0,1-.32.63l-30.38,9.93A.44.44,0,0,1,388,440.71Z" style="fill: rgb(38, 50, 56); transform-origin: 403.151px 435.236px;" id="el6gxdbao15i" class="animable"></path><path d="M368.76,435.07a.5.5,0,0,1-.48-.37.52.52,0,0,1,.35-.62l35.06-9.34a.49.49,0,0,1,.61.35.5.5,0,0,1-.35.61l-35.06,9.35Z" style="fill: rgb(38, 50, 56); transform-origin: 386.291px 429.896px;" id="elere3eef1qcb" class="animable"></path></g><g id="freepik--character-1--inject-73" class="animable" style="transform-origin: 357.288px 304.903px;"><path d="M316.09,249.93a.45.45,0,0,1-.31-.11.49.49,0,0,1-.17-.51c.13-.5,3.12-12.21,4.54-15.77a.5.5,0,0,1,.61-.29c1.05.32,10.26,3.24,11.27,5.76s-10.66,8.45-15.72,10.88A.54.54,0,0,1,316.09,249.93Zm4.83-15.59c-1.2,3.24-3.33,11.3-4.07,14.18,8.08-4,14.65-8.14,14.25-9.13C330.5,237.87,324.72,235.56,320.92,234.34Z" style="fill: rgb(38, 50, 56); transform-origin: 323.843px 241.579px;" id="elt3ua5yhgnj" class="animable"></path><path d="M355.22,312s19.84,36.21,20.53,37.6S411,408.87,411,408.87l2.54,4.85,7.61-7.62a12.25,12.25,0,0,1,5.3-3l-5.07-7.85s-10.61-27-17.53-43.82-11.3-23.75-11.3-24.45-8.07-26.52-8.07-26.52Z" style="fill: rgb(255, 255, 255); transform-origin: 390.835px 357.09px;" id="el2udjl2r20o6" class="animable"></path><path d="M413.58,414.22h-.08a.5.5,0,0,1-.37-.26l-2.53-4.85c-1.4-2.34-34.6-57.89-35.3-59.28S355,312.6,354.79,312.24a.53.53,0,0,1,0-.41.52.52,0,0,1,.29-.29L384.33,300a.51.51,0,0,1,.4,0,.48.48,0,0,1,.26.3c2.44,7.79,8.1,26,8.1,26.67,0,.17.52,1.11,1.14,2.3,1.73,3.35,5.33,10.3,10.12,22,6.84,16.65,17.43,43.56,17.53,43.83l5,7.75a.5.5,0,0,1,0,.46.52.52,0,0,1-.35.3,12,12,0,0,0-5.07,2.87l-7.61,7.61A.51.51,0,0,1,413.58,414.22Zm-57.65-102c2.49,4.53,19.62,35.81,20.27,37.11s34.92,58.67,35.27,59.25l2.23,4.26,7.13-7.13a12.75,12.75,0,0,1,4.88-2.94L421,395.54c-.15-.36-10.73-27.27-17.57-43.91-4.78-11.62-8.36-18.55-10.09-21.88-1-2-1.25-2.43-1.25-2.76-.11-.79-4.72-15.71-7.89-25.86Z" style="fill: rgb(38, 50, 56); transform-origin: 390.842px 357.09px;" id="elughikfa0nc" class="animable"></path><polygon points="384.87 302.98 361.86 325.16 355.22 312 384.87 302.98" style="fill: rgb(38, 50, 56); transform-origin: 370.045px 314.07px;" id="el42pk7o1e4a7" class="animable"></polygon><path d="M361.86,325.66h-.08a.54.54,0,0,1-.37-.27l-6.63-13.16a.51.51,0,0,1,0-.42.54.54,0,0,1,.32-.29l29.64-9a.5.5,0,0,1,.58.22.51.51,0,0,1-.08.62l-23,22.18A.52.52,0,0,1,361.86,325.66Zm-5.92-13.35,6.06,12,21-20.27Z" style="fill: rgb(38, 50, 56); transform-origin: 370.063px 314.079px;" id="elg4awdynetmk" class="animable"></path><path d="M424.31,400.16s-2.32-1.86-6.34.77-7.12,10.67-6.5,12.53,5.1,6,7.42,7.27,11.45,1.85,15.62,1.23,11.76-1.54,13.46-1.39,3.71,1.86,4.17.31l.47-1.54s5.25,4.17,6.18,4a2.19,2.19,0,0,0,1.39-1.24s1.71,1.39,2.48.62l.77-.78s1.55-.77,1.7-1.7.62-9.89-.31-12.21-5.56-2.32-5.56-2.32a2.78,2.78,0,0,0-2.63-1.7c-2,0-18.56.46-22,.3a58.32,58.32,0,0,1-6.19-.61Z" style="fill: rgb(64, 123, 255); transform-origin: 438.386px 411.433px;" id="el8h9fvhim7jd" class="animable"></path><path d="M458.78,423.86c-1,0-3.91-2.12-5.91-3.68l-.25.85a1.31,1.31,0,0,1-.68.86,3.05,3.05,0,0,1-2.33-.33,6.8,6.8,0,0,0-1.69-.49c-1.59-.15-8.89.73-13.33,1.39-4.18.62-13.45,0-15.93-1.29-2.24-1.2-7-5.46-7.66-7.55s2.46-10.34,6.69-13.11,6.82-.83,6.93-.74h0l4.07,3.46a57.91,57.91,0,0,0,6,.6c2.35.1,11.05-.09,16.81-.22,2.54-.05,4.51-.09,5.13-.09a3.23,3.23,0,0,1,2.94,1.7c1.13,0,4.82.38,5.72,2.63,1,2.48.5,11.5.34,12.49s-1.53,1.83-1.9,2l-.72.72c-.78.78-2,.19-2.67-.25a2.37,2.37,0,0,1-1.46,1Zm-6.17-5a.51.51,0,0,1,.31.11c2.34,1.86,5.23,3.89,5.82,3.92s1-.93,1-.94a.54.54,0,0,1,.34-.29.5.5,0,0,1,.44.1c.55.45,1.51.94,1.8.65l.78-.77a.38.38,0,0,1,.13-.09c.43-.22,1.34-.83,1.43-1.34.14-.86.58-9.78-.28-11.95-.66-1.64-3.91-2-5.1-2a.51.51,0,0,1-.47-.33,2.27,2.27,0,0,0-2.16-1.37c-.62,0-2.58,0-5.11.09-5.77.13-14.5.32-16.88.21a60.13,60.13,0,0,1-6.24-.62.53.53,0,0,1-.24-.11L424,400.55c-.14-.11-2.18-1.54-5.75.8-3.95,2.59-6.82,10.38-6.3,11.95s4.95,5.79,7.19,7,11,1.82,15.31,1.18c3.83-.57,11.75-1.56,13.57-1.4a7.54,7.54,0,0,1,1.95.56c.58.22,1.29.49,1.54.37a.4.4,0,0,0,.16-.26l.47-1.55a.48.48,0,0,1,.33-.33A.4.4,0,0,1,452.61,418.83Z" style="fill: rgb(38, 50, 56); transform-origin: 438.404px 411.443px;" id="elc87holsu5hh" class="animable"></path><path d="M415.18,415.66l-.16,0a.49.49,0,0,1-.31-.63c1.9-5.72,11-9.43,11.42-9.58a.5.5,0,1,1,.37.92c-.09,0-9.08,3.7-10.84,9A.5.5,0,0,1,415.18,415.66Z" style="fill: rgb(38, 50, 56); transform-origin: 420.778px 410.523px;" id="elqpf3pacoyq" class="animable"></path><path d="M415.65,410.09l-.16,0a.51.51,0,0,1-.32-.63,12.88,12.88,0,0,1,6.94-7.89.5.5,0,1,1,.37.93,12.07,12.07,0,0,0-6.36,7.27A.49.49,0,0,1,415.65,410.09Z" style="fill: rgb(38, 50, 56); transform-origin: 418.972px 405.812px;" id="el0odclzpvtg68" class="animable"></path><path d="M452.61,419.83a.5.5,0,0,1-.48-.34,6.45,6.45,0,0,0-2.14-2.84c-1.53-1.11-6.44-1.61-8.05-1.61s-9.94-1.49-10.3-1.55a.5.5,0,0,1,.18-1c3,.54,8.93,1.54,10.12,1.54,1.36,0,6.76.43,8.64,1.8a7.4,7.4,0,0,1,2.5,3.34.5.5,0,0,1-.31.63A.47.47,0,0,1,452.61,419.83Z" style="fill: rgb(38, 50, 56); transform-origin: 442.164px 416.156px;" id="elv8x1z70uo9n" class="animable"></path><path d="M460.18,422.62a.52.52,0,0,1-.47-.33l-3.51-9.47-6.56-5.95a.5.5,0,0,1,.67-.74l6.65,6a.48.48,0,0,1,.14.2l3.55,9.59a.5.5,0,0,1-.29.64A.57.57,0,0,1,460.18,422.62Z" style="fill: rgb(38, 50, 56); transform-origin: 455.089px 414.32px;" id="eloebyaon217" class="animable"></path><path d="M463.43,422.46a.5.5,0,0,1-.49-.4s-.78-3.88-1.54-6.61-2.6-8.43-2.62-8.49a.5.5,0,0,1,1-.31c0,.06,1.87,5.77,2.64,8.53s1.54,6.65,1.55,6.69a.5.5,0,0,1-.39.59Z" style="fill: rgb(38, 50, 56); transform-origin: 461.369px 414.372px;" id="elo2rext18yc" class="animable"></path><path d="M465.6,411.76s3.55,3.25,4.33,3.86,4.64,3.56,2.32,3.87-6.81-2-6.81-2Z" style="fill: rgb(64, 123, 255); transform-origin: 469.211px 415.639px;" id="elvyccv9sndp9" class="animable"></path><path d="M471.8,420c-2.51,0-6.41-2-6.59-2.1a.49.49,0,0,1-.27-.45l.16-5.73a.48.48,0,0,1,.3-.44.49.49,0,0,1,.53.09s3.56,3.24,4.31,3.84l.14.12c2.41,1.9,3.29,3,3.06,3.85-.08.3-.34.68-1.13.79A4.12,4.12,0,0,1,471.8,420ZM466,417.17c1,.49,4.41,2.07,6.23,1.82a.66.66,0,0,0,.32-.09c0-.06-.09-.68-2.74-2.77l-.15-.12c-.55-.44-2.44-2.15-3.54-3.15Z" style="fill: rgb(38, 50, 56); transform-origin: 469.208px 415.619px;" id="el1m8mkzzf6z7" class="animable"></path><path d="M319.74,242.32l.88-8.59s-8.1,6.66-22.38,16.66S260.88,268,256.83,278.71,241.6,371.3,241.6,384.15s3.2,35,3.2,35H354.18s2.14-31.9,3.8-54,5.72-52.36,5.72-52.36l35.46-14.29s-11.43-19-16.42-30.94-16.9-26.89-23.8-27.37-29.52,5.95-30.71,6.67S319.74,242.32,319.74,242.32Z" style="fill: rgb(64, 123, 255); transform-origin: 320.38px 326.44px;" id="el2cp9ekeih1e" class="animable"></path><path d="M354.17,419.64H244.8a.5.5,0,0,1-.49-.43c0-.22-3.21-22.32-3.21-35.06,0-13.63,11.34-95.23,15.26-105.62,2.71-7.15,13.39-12.8,24.7-18.77A166.45,166.45,0,0,0,298,250c14.09-9.87,22.26-16.57,22.34-16.64a.5.5,0,0,1,.55-.06.51.51,0,0,1,.26.5l-.84,8.3c3.21,2.27,7,4.5,7.73,4.3,1.18-.71,24-7.21,31-6.73,7.19.5,19.13,15.55,24.23,27.68,4.92,11.73,16.27,30.69,16.39,30.88a.49.49,0,0,1,0,.41.51.51,0,0,1-.28.31l-35.2,14.17c-.41,3.15-4.11,31.32-5.67,52-1.64,21.88-3.78,53.71-3.81,54A.5.5,0,0,1,354.17,419.64Zm-108.93-1H353.71c.27-4,2.24-33.14,3.77-53.57,1.65-21.9,5.68-52.09,5.72-52.39a.49.49,0,0,1,.31-.4l34.92-14.06c-1.84-3.1-11.65-19.78-16.15-30.5-5-11.8-16.72-26.61-23.38-27.07s-29.22,5.89-30.41,6.6-6.21-2.5-9-4.52a.52.52,0,0,1-.21-.46l.76-7.4c-2.53,2-10.06,7.94-21.47,15.93a164.12,164.12,0,0,1-17,9.84c-11.13,5.89-21.65,11.44-24.22,18.25-3.91,10.34-15.2,91.67-15.2,105.26C242.1,395.84,244.79,415.49,245.24,418.64Z" style="fill: rgb(38, 50, 56); transform-origin: 320.402px 326.442px;" id="ela3tsw1iy5bc" class="animable"></path><path d="M305.36,357.2a.52.52,0,0,1-.35-.14.5.5,0,0,1,0-.71c14.17-14.67,36.43-62.6,36.66-63.08a.5.5,0,1,1,.9.42c-.22.48-22.56,48.56-36.84,63.36A.51.51,0,0,1,305.36,357.2Z" style="fill: rgb(38, 50, 56); transform-origin: 323.753px 325.064px;" id="el0mtp89h3ne9i" class="animable"></path><path d="M363.7,313.25h-.06a.5.5,0,0,1-.44-.55l3.6-30.07a.5.5,0,0,1,.56-.43.49.49,0,0,1,.43.55l-3.6,30.06A.5.5,0,0,1,363.7,313.25Z" style="fill: rgb(38, 50, 56); transform-origin: 365.496px 297.723px;" id="elukxldvw4esi" class="animable"></path><path d="M405,220.35s4.54,18.17,1.74,25.57-17,9.21-17,9.21l.8-15.21Z" style="fill: rgb(38, 50, 56); transform-origin: 398.696px 237.74px;" id="elwd30hdk2xsi" class="animable"></path><path d="M389.77,255.63a.51.51,0,0,1-.5-.53l.8-15.21a.47.47,0,0,1,.1-.27l14.45-19.56a.5.5,0,0,1,.5-.2.52.52,0,0,1,.39.37c.19.75,4.55,18.41,1.73,25.87s-16.82,9.45-17.41,9.52Zm1.29-15.53-.76,14.44c2.69-.44,13.66-2.6,16-8.79s-.62-20.28-1.52-24.23Z" style="fill: rgb(38, 50, 56); transform-origin: 398.728px 237.741px;" id="elwwxpf6imwdi" class="animable"></path><path d="M353.55,196.3s-3.8-10-10.2-12.8-15.61-4.8-24.41,6.8-4.2,18.81-4.2,18.81l4.6-3.6s-2.8,8.2,2,12.4,15.21,2.8,18.21,1,5.2-7,7.8-11.6a45,45,0,0,1,6.4-8.41Z" style="fill: rgb(38, 50, 56); transform-origin: 333.644px 201.002px;" id="el74w0r1yntp4" class="animable"></path><path d="M330.74,221.14c-3.57,0-7.31-.74-9.73-2.85-3.78-3.31-3.13-8.83-2.54-11.46l-3.42,2.67a.5.5,0,0,1-.39.1.47.47,0,0,1-.34-.22c-.2-.31-4.69-7.63,4.22-19.38,9.14-12.05,18.65-9.74,25-7,6.52,2.85,10.31,12.67,10.47,13.09a.32.32,0,0,1,0,.14l.2,2.6a.51.51,0,0,1-.14.39,44.38,44.38,0,0,0-6.32,8.29c-.56,1-1.11,2-1.64,3-2,3.75-3.87,7.29-6.34,8.77C338.24,220.28,334.59,221.14,330.74,221.14ZM319.34,205a.52.52,0,0,1,.29.09.49.49,0,0,1,.18.57c0,.08-2.63,7.94,1.86,11.87s14.7,2.7,17.62.94c2.23-1.34,4-4.75,6-8.37.54-1,1.09-2.05,1.66-3.05a44.54,44.54,0,0,1,6.32-8.34l-.18-2.3c-.34-.86-4-9.89-9.91-12.46-6-2.65-15.1-4.84-23.81,6.64-7.21,9.5-5.23,16-4.43,17.74l4.12-3.23A.5.5,0,0,1,319.34,205Z" style="fill: rgb(38, 50, 56); transform-origin: 333.612px 200.973px;" id="elusdd50s2asb" class="animable"></path><path d="M394.77,240.32s-3.2,12.2-5,14.81-9.41,4.4-9.81,5.8a39,39,0,0,0-1.4,7.8c0,2.2.8,4.6-.4,5.2s-5.2,0-7-.6l-1.8-.6a29.62,29.62,0,0,1-8.8,3.8c-4.61,1-6,0-8.41-2.8s-7.4-9.4-7.4-9.4a26,26,0,0,0-9,11,19.17,19.17,0,0,0-.8,12.61s-9.41-3.6-13-22.61-2.2-23-2.2-23,9.4-3.8,13.41-10.2,6.8-15.41,18.8-11.41,5.2,14,24,16.81Z" style="fill: rgb(255, 255, 255); transform-origin: 357.128px 253.836px;" id="elywhggaj6hvk" class="animable"></path><path d="M335,288.44l-.18,0c-.4-.16-9.71-3.92-13.32-23s-2.24-23.1-2.18-23.26a.49.49,0,0,1,.28-.3c.1,0,9.3-3.82,13.17-10,.55-.88,1.09-1.83,1.62-2.76,3.3-5.82,7.05-12.43,17.77-8.85,5.32,1.77,7.1,4.74,8.83,7.62,2.25,3.74,4.57,7.6,15.1,9.16l18.8,2.81a.48.48,0,0,1,.41.62c-.13.5-3.24,12.32-5.07,15-1.07,1.55-3.84,2.74-6.28,3.8-1.4.61-3.31,1.44-3.46,1.86a39.72,39.72,0,0,0-1.38,7.66,18.08,18.08,0,0,0,.14,1.94c.17,1.61.34,3.14-.81,3.71-1.41.7-5.58,0-7.39-.57l-1.57-.53a29.35,29.35,0,0,1-8.77,3.74c-4.84,1.06-6.43-.09-8.89-3-2-2.39-6-7.6-7.13-9.05a25.66,25.66,0,0,0-8.43,10.51,18.83,18.83,0,0,0-.79,12.25.5.5,0,0,1-.47.67Zm-14.78-45.75c-.2,1-.83,6.23,2.26,22.55,2.82,14.87,9.28,20.19,11.73,21.71a20.26,20.26,0,0,1,1.12-11.8,26.28,26.28,0,0,1,9.2-11.24.5.5,0,0,1,.67.12c.05.06,5,6.62,7.38,9.38s3.54,3.59,7.92,2.64a29.45,29.45,0,0,0,8.63-3.73.49.49,0,0,1,.44-.06l1.8.6c2,.66,5.68,1.1,6.62.63.53-.27.4-1.46.27-2.72a19.38,19.38,0,0,1-.15-2,39.47,39.47,0,0,1,1.42-7.94c.24-.82,1.54-1.42,4-2.5,2.2-1,4.94-2.14,5.85-3.45,1.51-2.19,4.14-11.73,4.78-14.11L375.89,238c-11-1.63-13.44-5.7-15.8-9.63-1.71-2.85-3.33-5.54-8.29-7.19-9.95-3.32-13.33,2.64-16.59,8.4-.53.93-1.08,1.89-1.64,2.79C329.84,238.35,321.7,242,320.17,242.69Z" style="fill: rgb(38, 50, 56); transform-origin: 357.169px 253.863px;" id="elsc7vgskknz" class="animable"></path><path d="M346.55,231.92s1.6,3.8,4.2,3.8h2.6s2,5.2,14,8.8,25.21-2,25.21-2,13.06-11,13.06-20.56S395.22,195.35,377,190.54s-35.27,8.16-38.87,18.17-3.6,12.2-4.4,17.21-5.81,8.8-3.2,9.2,9-3.2,9.8-3.6S346.55,231.92,346.55,231.92Z" style="fill: rgb(38, 50, 56); transform-origin: 367.702px 217.616px;" id="el62awx5c2rqi" class="animable"></path><path d="M376.07,246.22a31,31,0,0,1-8.86-1.22c-10.54-3.16-13.52-7.56-14.17-8.78h-2.29c-2.5,0-4.1-2.94-4.54-3.85a25.53,25.53,0,0,0-5.64-.4,4.22,4.22,0,0,0-.4.21c-1.79.94-7.21,3.82-9.7,3.43a1.25,1.25,0,0,1-1.07-.68c-.35-.75.27-1.72,1.19-3.19a15.9,15.9,0,0,0,2.66-5.9c.11-.68.2-1.3.29-1.9.59-3.9,1-6.71,4.14-15.4,3.78-10.5,21.44-23.23,39.46-18.48s29,21.77,29,31.9c0,9.72-12.7,20.49-13.24,20.94a.35.35,0,0,1-.13.08A48.22,48.22,0,0,1,376.07,246.22Zm-34.68-15.31a43.34,43.34,0,0,1,5.23.51.51.51,0,0,1,.39.3s1.51,3.5,3.74,3.5h2.6a.5.5,0,0,1,.47.32c0,.05,2.13,5,13.68,8.5,11.25,3.38,23.76-1.53,24.8-1.95.94-.81,12.83-11.2,12.83-20.13,0-9.81-10.75-26.32-28.24-30.93s-34.61,7.69-38.27,17.85c-3.1,8.6-3.51,11.37-4.09,15.2-.09.61-.18,1.23-.29,1.91a17.38,17.38,0,0,1-2.8,6.29c-.5.79-1.26,2-1.13,2.24h0s.06.07.31.1c1.43.22,4.49-.89,9.08-3.33l.43-.22A3.37,3.37,0,0,1,341.39,230.91Z" style="fill: rgb(38, 50, 56); transform-origin: 367.72px 217.628px;" id="elvyrt4965ici" class="animable"></path><path d="M347.75,235.32s1.8-9-4-10.21-7.8,7.21-7.4,12.21,6.4,5.8,7.2,5.2" style="fill: rgb(255, 255, 255); transform-origin: 342.157px 233.842px;" id="elayxes64gt1" class="animable"></path><path d="M342.66,243.19a8,8,0,0,1-3.05-.7,6,6,0,0,1-3.76-5.13c-.32-4,.77-9.19,3.44-11.56a5.06,5.06,0,0,1,4.56-1.18c5,1,5,7.51,4.39,10.8a.5.5,0,0,1-.59.39.51.51,0,0,1-.39-.59c0-.08,1.64-8.53-3.61-9.62a4.07,4.07,0,0,0-3.69,1c-2.41,2.13-3.4,7.12-3.12,10.73a5,5,0,0,0,2.8,4.11,5.65,5.65,0,0,0,3.62.73.48.48,0,0,1,.69.1.5.5,0,0,1-.1.7A2.09,2.09,0,0,1,342.66,243.19Z" style="fill: rgb(38, 50, 56); transform-origin: 342.155px 233.844px;" id="elz6eu0oc9vmd" class="animable"></path><path d="M375.5,258.43a14.6,14.6,0,0,1-5.74-1.45,26.86,26.86,0,0,0-6.47-2,.51.51,0,0,1-.43-.56.5.5,0,0,1,.56-.43,27.19,27.19,0,0,1,6.74,2,12.93,12.93,0,0,0,5.56,1.36.5.5,0,1,1,.09,1Z" style="fill: rgb(38, 50, 56); transform-origin: 369.562px 256.208px;" id="eleyul84ekwvv" class="animable"></path><path d="M369,263.3a8.9,8.9,0,0,1-7-3.28.5.5,0,1,1,.81-.59,8,8,0,0,0,7.34,2.8.52.52,0,0,1,.56.44.51.51,0,0,1-.44.56C369.79,263.27,369.38,263.3,369,263.3Z" style="fill: rgb(38, 50, 56); transform-origin: 366.308px 261.262px;" id="el1ikzwn359hx" class="animable"></path><path d="M344.75,264.33s-2.4-6-2.6-9.4-.2-6.81-.2-6.81-3.2,6.61-3.6,11.81a21.14,21.14,0,0,0,1.2,9Z" style="fill: rgb(38, 50, 56); transform-origin: 341.513px 258.525px;" id="elep1nxf4fdqf" class="animable"></path><path d="M339.55,269.43h-.11a.5.5,0,0,1-.35-.3,21.47,21.47,0,0,1-1.24-9.23c.4-5.24,3.52-11.71,3.65-12a.49.49,0,0,1,.56-.27.49.49,0,0,1,.39.48s0,3.43.2,6.78,2.54,9.18,2.56,9.24a.49.49,0,0,1-.13.56l-5.2,4.6A.46.46,0,0,1,339.55,269.43Zm1.93-19a34.49,34.49,0,0,0-2.63,9.53,21.67,21.67,0,0,0,.92,8.1l4.39-3.88c-.51-1.32-2.33-6.21-2.51-9.23C341.55,253.33,341.51,251.7,341.48,250.44Z" style="fill: rgb(38, 50, 56); transform-origin: 341.51px 258.523px;" id="el9ukkwyxbcft" class="animable"></path><polygon points="340.94 378.88 340.8 381 344.44 386.87 342.3 382.01 342.6 381.15 340.94 378.88" style="fill: rgb(38, 50, 56); transform-origin: 342.62px 382.875px;" id="elha0sajjvtjb" class="animable"></polygon><path d="M344.45,387.37a.49.49,0,0,1-.43-.24l-3.64-5.86a.54.54,0,0,1-.08-.3l.14-2.12a.5.5,0,0,1,.9-.26l1.66,2.26a.48.48,0,0,1,.07.46l-.23.68,2.06,4.68a.49.49,0,0,1-.22.64A.53.53,0,0,1,344.45,387.37Zm-3.14-6.49.55.87.18-.52-.69-.94Z" style="fill: rgb(38, 50, 56); transform-origin: 342.622px 382.879px;" id="elb5maqycs778" class="animable"></path><g id="eleirzf8eaj4a"><rect x="349.16" y="374.99" width="1.88" height="32.18" style="fill: rgb(255, 255, 255); transform-origin: 350.1px 391.08px; transform: rotate(-31.82deg);" class="animable"></rect></g><path d="M357.79,405.75h-.12a.53.53,0,0,1-.31-.22l-17-27.35a.5.5,0,0,1-.06-.38.48.48,0,0,1,.23-.31l1.59-1a.51.51,0,0,1,.69.16l17,27.35a.51.51,0,0,1-.16.69l-1.6,1A.48.48,0,0,1,357.79,405.75Zm-16.28-27.68L358,404.56l.75-.46-16.45-26.49Z" style="fill: rgb(38, 50, 56); transform-origin: 350.084px 391.084px;" id="el5nzkrxbe34p" class="animable"></path><path d="M345.52,380.59c-.28-.51-.58-1-.9-1.55-2.23-3.59-4.68-6.11-5.47-5.62s.37,3.8,2.6,7.4c.33.52.66,1,1,1.49Z" style="fill: rgb(38, 50, 56); transform-origin: 342.211px 377.835px;" id="elmq14bq5bubk" class="animable"></path><path d="M342.74,382.81a.51.51,0,0,1-.41-.21c-.33-.48-.67-1-1-1.52-1.6-2.57-3.91-7.17-2.45-8.08,1.83-1.14,6,5.49,6.16,5.78.33.53.63,1.06.92,1.57a.5.5,0,0,1-.18.67L343,382.74A.54.54,0,0,1,342.74,382.81Zm-3.34-8.95h0c-.2.37.49,3,2.8,6.69.23.38.47.74.7,1.09l2-1.22c-.21-.37-.42-.74-.66-1.12C341.92,375.64,339.92,373.86,339.4,373.86Z" style="fill: rgb(38, 50, 56); transform-origin: 342.219px 377.839px;" id="elwhswtjzqs6d" class="animable"></path><path d="M284.78,351.27l1.59,14S299,379,309.86,388.35s26.39,17.08,27.63,17.92c0,0,14.24-6.46,15.79-6.64s18.17,6.87,18.17,6.87.85,3.39.26,4.9l-.6,1.52s-2.79,4.23-3.36,5.23-.62,2-1.47,3.52-2.29,4.51-2.29,4.51-.86,1.5-5.25,1.79-8.79.82-14.16.29-16.65-6.54-19.44-7.2-19.46-6.94-35.18-16.25S262.29,387.66,260.11,385s-2.36-13.76-2.93-17.65-1.28-15-1.28-15Z" style="fill: rgb(255, 255, 255); transform-origin: 313.909px 389.878px;" id="el9wkdlq21fu4" class="animable"></path><path d="M349.3,429a46.87,46.87,0,0,1-4.77-.24c-3.53-.35-9.33-2.91-14-5a48.42,48.42,0,0,0-5.53-2.24c-3.12-.74-19.68-7.05-35.32-16.31-16.63-9.86-27.84-17.32-30-19.95-1.69-2.1-2.21-8.49-2.63-13.62-.14-1.75-.26-3.26-.41-4.28-.56-3.86-1.25-14.58-1.28-15a.54.54,0,0,1,.13-.37.48.48,0,0,1,.35-.16l28.88-1.06a.5.5,0,0,1,.52.44L286.85,365c1.27,1.37,13.18,14.21,23.34,22.94,8.87,7.63,21.05,14.28,25.63,16.79l1.71.94c2.28-1,14.17-6.39,15.69-6.57s15.63,5.72,18.42,6.91a.47.47,0,0,1,.29.34c.1.36.88,3.59.24,5.21l-.59,1.51a.41.41,0,0,1-.05.09s-2.79,4.23-3.34,5.2a7.91,7.91,0,0,0-.54,1.32,10.47,10.47,0,0,1-.94,2.21c-.83,1.47-2.26,4.45-2.27,4.48-.12.21-1.13,1.77-5.66,2.07l-2.39.17C354.12,428.81,351.8,429,349.3,429Zm-92.86-76.18c.14,2.22.74,11.09,1.23,14.44.15,1,.28,2.57.42,4.34.38,4.73.91,11.21,2.41,13.07,2,2.51,13.42,10.07,29.71,19.72,15.3,9.06,32.06,15.49,35,16.2a46.65,46.65,0,0,1,5.7,2.29c4.35,1.92,10.31,4.55,13.68,4.89a64.38,64.38,0,0,0,11.69-.12l2.39-.17c4-.26,4.84-1.53,4.85-1.55s1.44-3,2.29-4.5a10.8,10.8,0,0,0,.86-2,7.92,7.92,0,0,1,.61-1.49c.54-1,3-4.74,3.35-5.21l.57-1.47c.41-1,0-3.3-.22-4.36-7.8-3.3-16.51-6.73-17.65-6.73h0c-1.08.12-9.94,4-15.63,6.59a.51.51,0,0,1-.49,0c-.2-.13-.9-.52-1.87-1.05-4.61-2.51-16.85-9.21-25.8-16.9-10.74-9.23-23.41-23-23.54-23.15a.49.49,0,0,1-.13-.28l-1.53-13.52Z" style="fill: rgb(38, 50, 56); transform-origin: 313.89px 389.885px;" id="ely3vo3bisu5" class="animable"></path><polygon points="285.85 360.5 257.18 367.32 255.44 360.09 285.85 360.5" style="fill: rgb(38, 50, 56); transform-origin: 270.645px 363.705px;" id="elbqh3ivt8msg" class="animable"></polygon><path d="M257.18,367.82a.5.5,0,0,1-.49-.38L255,360.2a.49.49,0,0,1,.09-.42.54.54,0,0,1,.4-.19l30.41.41a.5.5,0,0,1,.49.44.51.51,0,0,1-.39.55l-28.67,6.82Zm-1.1-7.22,1.47,6.12,24.27-5.78Z" style="fill: rgb(38, 50, 56); transform-origin: 270.689px 363.705px;" id="el67q24u221hg" class="animable"></path><path d="M260.88,276.93s-6.71,10.2-8.68,28.11-5.41,54.27-5.41,54.27l20,2.21a26.21,26.21,0,0,0,4.43.11l17.92-1.13,4.13-44.56s2.89-1.14,3.84-9.32-4.05-21.06-4.05-21.06" style="fill: rgb(64, 123, 255); transform-origin: 272.01px 319.303px;" id="el76hwig5n50r" class="animable"></path><path d="M269.66,362.18a27.79,27.79,0,0,1-2.88-.16l-20-2.21a.49.49,0,0,1-.44-.54c0-.37,3.47-36.58,5.42-54.29s8.68-28.23,8.75-28.33a.5.5,0,0,1,.69-.14.49.49,0,0,1,.15.69c-.07.1-6.67,10.32-8.6,27.89-1.82,16.58-4.95,49.38-5.37,53.78L266.89,361a25.28,25.28,0,0,0,4.35.11l17.49-1.1,4.09-44.14a.52.52,0,0,1,.32-.42s2.64-1.23,3.52-8.91c.92-8-4-20.69-4-20.82a.5.5,0,0,1,.93-.36c.2.53,5,13.08,4.07,21.3-.8,7-3,9-3.85,9.57l-4.11,44.3a.5.5,0,0,1-.47.45l-17.92,1.12C270.76,362.16,270.21,362.18,269.66,362.18Z" style="fill: rgb(38, 50, 56); transform-origin: 272.058px 319.304px;" id="el2deunuet5e8" class="animable"></path><path d="M292.77,312.29a.5.5,0,0,1-.5-.46c0-.1-.78-10-3.53-14.64a.49.49,0,0,1,.18-.68.48.48,0,0,1,.68.17c2.87,4.83,3.63,14.66,3.67,15.08a.5.5,0,0,1-.46.53Z" style="fill: rgb(38, 50, 56); transform-origin: 290.97px 304.362px;" id="el5jc6dr567ow" class="animable"></path><path d="M371.71,411.4c.59-1.51-.26-4.9-.26-4.9s-16.62-7.05-18.17-6.87-15.79,6.64-15.79,6.64c-.46-.31-2.88-1.57-6.29-3.5a33.78,33.78,0,0,0-7.22,18c.5.16.89.28,1.16.34,2.79.66,14.06,6.66,19.44,7.2s9.77,0,14.16-.29,5.25-1.79,5.25-1.79,1.44-3,2.29-4.51.9-2.52,1.47-3.52,3.36-5.23,3.36-5.23Z" style="fill: rgb(64, 123, 255); transform-origin: 347.949px 414.084px;" id="elm2fue0te9q" class="animable"></path><path d="M349.3,429a46.87,46.87,0,0,1-4.77-.24c-3.53-.35-9.33-2.91-14-5a48.42,48.42,0,0,0-5.53-2.24c-.27-.07-.68-.18-1.2-.35a.5.5,0,0,1-.34-.52,34.42,34.42,0,0,1,7.33-18.22.5.5,0,0,1,.64-.13c1.77,1,3.27,1.83,4.37,2.43l1.71.94c2.28-1,14.17-6.39,15.69-6.57s15.63,5.72,18.42,6.91a.47.47,0,0,1,.29.34c.1.36.88,3.59.24,5.21h0l-.59,1.51a.41.41,0,0,1-.05.09s-2.79,4.23-3.34,5.2a7.91,7.91,0,0,0-.54,1.32,10.47,10.47,0,0,1-.94,2.21c-.83,1.46-2.26,4.45-2.27,4.48-.12.21-1.13,1.77-5.66,2.07l-2.39.17C354.12,428.81,351.8,429,349.3,429Zm-24.79-8.62.74.21a46.65,46.65,0,0,1,5.7,2.29c4.35,1.92,10.31,4.55,13.68,4.89a64.38,64.38,0,0,0,11.69-.12l2.39-.17c4-.26,4.84-1.53,4.85-1.55s1.44-3,2.29-4.5a10.8,10.8,0,0,0,.86-2,7.92,7.92,0,0,1,.61-1.49c.54-1,3-4.74,3.35-5.21l.57-1.47c.41-1,0-3.3-.22-4.36-7.8-3.3-16.51-6.73-17.65-6.73h0c-1.08.12-9.94,4-15.63,6.59a.51.51,0,0,1-.49,0c-.2-.13-.9-.52-1.87-1.05s-2.4-1.31-4-2.22A33.56,33.56,0,0,0,324.51,420.37Zm47.2-9h0Z" style="fill: rgb(38, 50, 56); transform-origin: 347.929px 414.048px;" id="eldurath5qfno" class="animable"></path><path d="M369.38,414.18a.43.43,0,0,1-.19,0l-13.14-5.39a.5.5,0,0,1-.28-.65.49.49,0,0,1,.65-.27l13.15,5.38a.5.5,0,0,1,.27.66A.49.49,0,0,1,369.38,414.18Z" style="fill: rgb(38, 50, 56); transform-origin: 362.807px 411.01px;" id="elaajrzhkkybl" class="animable"></path><path d="M367.75,418.65h-.1l-13-2.55a.5.5,0,1,1,.2-1l13,2.55a.48.48,0,0,1,.39.58A.5.5,0,0,1,367.75,418.65Z" style="fill: rgb(38, 50, 56); transform-origin: 361.244px 416.87px;" id="elkk7tcaa13n" class="animable"></path><path d="M354.37,423.86a.5.5,0,0,1-.5-.48.51.51,0,0,1,.49-.52l10.49-.25h0a.5.5,0,0,1,.5.48.5.5,0,0,1-.49.52l-10.49.25Z" style="fill: rgb(38, 50, 56); transform-origin: 359.61px 423.235px;" id="elqnqmcwpqsyb" class="animable"></path><path d="M329.87,419.9h-.07a.5.5,0,0,1-.42-.56c.88-6.48,6.05-12.32,6.27-12.57a.5.5,0,0,1,.7,0,.5.5,0,0,1,0,.71c-.05.06-5.18,5.86-6,12A.51.51,0,0,1,329.87,419.9Z" style="fill: rgb(38, 50, 56); transform-origin: 332.937px 413.264px;" id="eloxij1oqqrub" class="animable"></path><path d="M327,416.12h-.09a.5.5,0,0,1-.4-.58c.78-4.37,5.78-9,6-9.24a.51.51,0,0,1,.71,0,.5.5,0,0,1,0,.71c-.05,0-5,4.64-5.69,8.68A.49.49,0,0,1,327,416.12Z" style="fill: rgb(38, 50, 56); transform-origin: 329.935px 411.139px;" id="eldrn4kvlnem5" class="animable"></path></g><g id="freepik--Skull--inject-73" class="animable" style="transform-origin: 222.516px 406.254px;"><path d="M252.5,398.61c-.54-4.68-5.58-15.81-14.87-22.26a26.33,26.33,0,0,0-13.49-4.86h-3.29a26.3,26.3,0,0,0-13.49,4.86c-9.3,6.45-14.34,17.58-14.87,22.26s3.45,10,2.65,15.23S192,422.63,193,424.39s7.43,7.32,10.09,7,8-6.74,8-3.81-3.45,8.79-2.65,9.67,4.78,2.92,8,3.51a14.47,14.47,0,0,0,6.1-.29,14.5,14.5,0,0,0,6.11.29c3.19-.59,7.17-2.64,8-3.51s-2.65-6.74-2.65-9.67,5.31,3.52,8,3.81,9-5.27,10.09-7-1.32-5.27-2.12-10.55S253,403.3,252.5,398.61Z" style="fill: rgb(163, 163, 163); transform-origin: 222.493px 406.224px;" id="elkelsufd1r99" class="animable"></path><path d="M218.69,441.49a12.61,12.61,0,0,1-2.39-.21c-3.2-.59-7.35-2.67-8.25-3.67-.58-.64-.11-1.93.93-4.57a18.63,18.63,0,0,0,1.59-5.43.69.69,0,0,0,0-.3h0a12.93,12.93,0,0,0-2.75,1.88c-1.62,1.27-3.3,2.58-4.61,2.73-3,.31-9.5-5.5-10.57-7.27-.72-1.2-.18-2.85.57-5.14a35.07,35.07,0,0,0,1.49-5.74c.4-2.65-.48-5.37-1.33-8s-1.59-4.89-1.33-7.22c.52-4.6,5.48-16,15.08-22.62A26.91,26.91,0,0,1,220.82,371h3.32a26.88,26.88,0,0,1,13.77,4.95c9.6,6.66,14.56,18,15.08,22.62h0c.27,2.33-.51,4.71-1.32,7.22s-1.74,5.34-1.34,8a34,34,0,0,0,1.5,5.74c.74,2.29,1.29,3.94.56,5.14-1.07,1.77-7.58,7.59-10.57,7.27-1.31-.15-3-1.46-4.61-2.73a10.57,10.57,0,0,0-2.79-1.84h0s0,.1,0,.26c0,1.37.85,3.53,1.6,5.43,1,2.64,1.51,3.93.93,4.57-.91,1-5.05,3.08-8.25,3.67a15,15,0,0,1-6.2-.26A15.56,15.56,0,0,1,218.69,441.49Zm3.8-1.49a.39.39,0,0,1,.15,0,14,14,0,0,0,5.87.28c3-.56,7-2.57,7.68-3.36.13-.36-.59-2.19-1.11-3.53-.79-2-1.67-4.24-1.67-5.8a1.18,1.18,0,0,1,.56-1.17c.8-.39,1.93.45,3.86,2,1.37,1.07,3.08,2.41,4.1,2.52,2.37.24,8.55-5.05,9.61-6.79.48-.81,0-2.35-.66-4.3a34.43,34.43,0,0,1-1.53-5.91c-.44-2.89.48-5.71,1.37-8.45.78-2.41,1.52-4.68,1.28-6.8h0c-.5-4.44-5.32-15.43-14.66-21.91A26,26,0,0,0,224.11,372h-3.26a25.84,25.84,0,0,0-13.21,4.77c-9.34,6.48-14.15,17.47-14.65,21.91-.24,2.12.49,4.39,1.28,6.8.89,2.74,1.8,5.56,1.37,8.45a36.38,36.38,0,0,1-1.53,5.91c-.64,1.95-1.15,3.49-.66,4.3,1.05,1.74,7.26,7,9.6,6.79,1-.11,2.73-1.45,4.1-2.52,1.93-1.51,3.06-2.35,3.86-2a1.16,1.16,0,0,1,.56,1.17c0,1.56-.88,3.81-1.66,5.8-.53,1.34-1.25,3.17-1.1,3.56.7.76,4.62,2.77,7.67,3.33a14.24,14.24,0,0,0,5.87-.28A.34.34,0,0,1,222.49,440Z" style="fill: rgb(38, 50, 56); transform-origin: 222.516px 406.254px;" id="elusecerty4c8" class="animable"></path><path d="M216.93,412.5c2.1-3.76-.67-8.57-4.64-8.12-4.41.51-10.62,1.46-12.06,2.95-2.3,2.37-1.07,10.83,2.9,12.36s12.22-4.4,13.75-7.11Z" style="fill: rgb(38, 50, 56); transform-origin: 208.364px 412.144px;" id="elr0rf80ljps" class="animable"></path><path d="M204.6,420.43a4.44,4.44,0,0,1-1.65-.28c-1.87-.71-3.39-2.93-4-5.92-.56-2.53-.48-5.75,1-7.25,1.21-1.25,5.38-2.3,12.37-3.09a5.1,5.1,0,0,1,4.86,2.37,6.2,6.2,0,0,1,.26,6.48h0l-.43-.24.39.32C215.88,415.36,209.14,420.43,204.6,420.43Zm8.2-15.58-.45,0c-6.47.74-10.76,1.76-11.76,2.8s-1.3,3.69-.71,6.33,1.87,4.61,3.43,5.21c3.74,1.44,11.71-4.36,13.13-6.89l.49.17-.44-.25a5.18,5.18,0,0,0-.22-5.43A4.17,4.17,0,0,0,212.8,404.85Z" style="fill: rgb(38, 50, 56); transform-origin: 208.43px 412.146px;" id="eldugob8fliws" class="animable"></path><path d="M226.87,412.5c-2.1-3.76.66-8.57,4.63-8.12,4.42.51,10.63,1.46,12.07,2.95,2.29,2.37,1.07,10.83-2.9,12.36s-12.23-4.4-13.76-7.11Z" style="fill: rgb(38, 50, 56); transform-origin: 235.433px 412.144px;" id="elpgcans9cpkj" class="animable"></path><path d="M239.19,420.43c-4.53,0-11.28-5.07-12.71-7.61l0-.08a6.2,6.2,0,0,1,.26-6.48,5.12,5.12,0,0,1,4.87-2.37c7,.79,11.15,1.84,12.37,3.09,1.44,1.5,1.52,4.72,1,7.25-.66,3-2.17,5.21-4,5.92A4.44,4.44,0,0,1,239.19,420.43Zm-11.84-8.1c1.42,2.53,9.4,8.32,13.14,6.89,1.55-.6,2.84-2.55,3.43-5.21s.28-5.3-.71-6.33-5.3-2.06-11.77-2.8a4.12,4.12,0,0,0-3.92,1.94,5.21,5.21,0,0,0-.22,5.43h0l-.44.25Z" style="fill: rgb(38, 50, 56); transform-origin: 235.482px 412.149px;" id="elve6atcqfe3b" class="animable"></path><path d="M221,413.6s-4.47,10.44-3.88,11.63a2.41,2.41,0,0,0,2.65,1.53c.9-.3,1.94-2.38,2.69-1.79s1.57,1.75,2,1.9,3.68-.89,3.53-2.68S222.59,413,222.59,413,222,411.81,221,413.6Z" style="fill: rgb(38, 50, 56); transform-origin: 222.531px 419.748px;" id="elp54l7x6fnak" class="animable"></path><path d="M224.55,427.38a1.14,1.14,0,0,1-.28,0,3.7,3.7,0,0,1-1.23-1.06,10.21,10.21,0,0,0-.94-.93c-.16,0-.62.52-.87.79a3.87,3.87,0,0,1-1.35,1.09,2.89,2.89,0,0,1-3.25-1.78c-.64-1.27,2.49-8.85,3.86-12.06l0,0c.49-.85,1-1.23,1.55-1.23a1.19,1.19,0,0,1,1,.66c.53,1,5.27,9.52,5.42,11.37a2.41,2.41,0,0,1-1.09,2.08A5.67,5.67,0,0,1,224.55,427.38Zm-2.42-3a.92.92,0,0,1,.59.22,11.31,11.31,0,0,1,1.05,1,5.12,5.12,0,0,0,.82.79,4.68,4.68,0,0,0,2.43-1.19,1.25,1.25,0,0,0,.44-1c-.1-1.23-3.23-7.24-5.31-11a.29.29,0,0,0-.12-.14s-.23,0-.63.72c-2.09,4.88-4.11,10.39-3.87,11.2.45.91,1.37,1.48,2,1.26a3.59,3.59,0,0,0,.93-.82C221,425,221.53,424.36,222.13,424.36Z" style="fill: rgb(38, 50, 56); transform-origin: 222.503px 419.794px;" id="elj0hpivz88hg" class="animable"></path><path d="M212.26,438.5a.5.5,0,0,1-.5-.46,12.2,12.2,0,0,0-.63-3.4,12.94,12.94,0,0,0-2.29,2.9.49.49,0,0,1-.69.16A.5.5,0,0,1,208,437c2.49-4,3.28-3.51,3.58-3.33.78.47,1.07,2.88,1.18,4.28a.51.51,0,0,1-.46.54Z" style="fill: rgb(38, 50, 56); transform-origin: 210.339px 436.025px;" id="el6wmjfe8jleh" class="animable"></path><path d="M217,438.9h-.08a.5.5,0,0,1-.42-.43,16.6,16.6,0,0,0-.67-3.13,9,9,0,0,0-.9,1.9.5.5,0,0,1-.95-.34c.65-1.79,1.29-2.71,1.9-2.73a.76.76,0,0,1,.77.55,10.66,10.66,0,0,1,.61,2.14c.55-.89,1.3-1.87,2.07-2a1.13,1.13,0,0,1,1,.38,15.06,15.06,0,0,1,1.53,2,.5.5,0,0,1-.86.51,13.11,13.11,0,0,0-1.42-1.8c-.06-.06-.08-.06-.09-.06-.48.07-1.43,1.48-2,2.75A.49.49,0,0,1,217,438.9Z" style="fill: rgb(38, 50, 56); transform-origin: 217.938px 436.536px;" id="el9pald2itrcv" class="animable"></path><path d="M224.45,438.5a.56.56,0,0,1-.27-.08.5.5,0,0,1-.15-.69c.59-.94,2.64-4,4.14-3.12a6.46,6.46,0,0,1,2,2c1.1-2.48,1.74-2.48,2-2.48.89,0,1.68,1.21,1.9,1.58a.5.5,0,0,1-.17.69.5.5,0,0,1-.68-.17c-.34-.56-.85-1.1-1-1.1a11.88,11.88,0,0,0-1.41,2.76.5.5,0,0,1-.43.32.48.48,0,0,1-.47-.27,7.31,7.31,0,0,0-2.08-2.47c-.41-.24-1.78,1.12-2.82,2.77A.5.5,0,0,1,224.45,438.5Z" style="fill: rgb(38, 50, 56); transform-origin: 229.047px 436.322px;" id="elkw608mqqeqb" class="animable"></path><path d="M233.56,425.24a.51.51,0,0,1-.47-.31c-.46-1.12-2.33-1.81-3-2a.51.51,0,0,1-.37-.61.5.5,0,0,1,.61-.36c.12,0,2.93.75,3.69,2.57a.51.51,0,0,1-.27.65A.43.43,0,0,1,233.56,425.24Z" style="fill: rgb(38, 50, 56); transform-origin: 231.88px 423.592px;" id="elasf6aex6hmf" class="animable"></path><path d="M210.52,425.37a.5.5,0,0,1-.28-.08.49.49,0,0,1-.13-.69c.88-1.34,3.25-1.9,3.52-2a.5.5,0,0,1,.21,1c-.61.14-2.34.68-2.9,1.53A.52.52,0,0,1,210.52,425.37Z" style="fill: rgb(38, 50, 56); transform-origin: 212.132px 423.98px;" id="elg9znajhpzht" class="animable"></path><path d="M196.45,410.1a.5.5,0,0,1-.47-.34,9.62,9.62,0,0,1,.56-5.05,4.46,4.46,0,0,0-.5-4.87c-1.42-2.13-.9-8-.88-8.22a.5.5,0,0,1,.54-.46.5.5,0,0,1,.45.55c-.14,1.59-.29,6.05.73,7.58a5.49,5.49,0,0,1,.57,5.84,9.14,9.14,0,0,0-.52,4.32.51.51,0,0,1-.32.63Z" style="fill: rgb(38, 50, 56); transform-origin: 196.544px 400.629px;" id="elxu8h3at8xul" class="animable"></path><path d="M246.68,412h-.08a.49.49,0,0,1-.41-.57,19.81,19.81,0,0,0-.12-3.72,26.46,26.46,0,0,1-.16-3.47,3.8,3.8,0,0,1,.87-2.19,7,7,0,0,0,1.16-2.33c.76-2.53-.13-6.81-.14-6.85a.5.5,0,0,1,.38-.6.52.52,0,0,1,.6.39c0,.18.95,4.57.12,7.34a7.74,7.74,0,0,1-1.31,2.63,2.83,2.83,0,0,0-.68,1.69,24,24,0,0,0,.16,3.3,19,19,0,0,1,.1,4A.49.49,0,0,1,246.68,412Z" style="fill: rgb(38, 50, 56); transform-origin: 247.573px 402.131px;" id="elu2rpkzdz1pj" class="animable"></path><path d="M236.64,422.29a10.74,10.74,0,0,1-5.81-1.85,25.69,25.69,0,0,1-3.87-5.09.49.49,0,0,1,.18-.68.51.51,0,0,1,.69.17,25.1,25.1,0,0,0,3.63,4.83,9.88,9.88,0,0,0,5.18,1.62.51.51,0,0,1,.5.5A.5.5,0,0,1,236.64,422.29Z" style="fill: rgb(38, 50, 56); transform-origin: 232.015px 418.445px;" id="elptgnqixu4t" class="animable"></path></g><defs>     <filter id="active" height="200%">         <feMorphology in="SourceAlpha" result="DILATED" operator="dilate" radius="2"></feMorphology>                <feFlood flood-color="#32DFEC" flood-opacity="1" result="PINK"></feFlood>        <feComposite in="PINK" in2="DILATED" operator="in" result="OUTLINE"></feComposite>        <feMerge>            <feMergeNode in="OUTLINE"></feMergeNode>            <feMergeNode in="SourceGraphic"></feMergeNode>        </feMerge>    </filter>    <filter id="hover" height="200%">        <feMorphology in="SourceAlpha" result="DILATED" operator="dilate" radius="2"></feMorphology>                <feFlood flood-color="#ff0000" flood-opacity="0.5" result="PINK"></feFlood>        <feComposite in="PINK" in2="DILATED" operator="in" result="OUTLINE"></feComposite>        <feMerge>            <feMergeNode in="OUTLINE"></feMergeNode>            <feMergeNode in="SourceGraphic"></feMergeNode>        </feMerge>            <feColorMatrix type="matrix" values="0   0   0   0   0                0   1   0   0   0                0   0   0   0   0                0   0   0   1   0 "></feColorMatrix>    </filter></defs></svg>